<svg width="62" height="62" viewBox="0 0 62 62" fill="none" xmlns="http://www.w3.org/2000/svg">
<path fill-rule="evenodd" clip-rule="evenodd" d="M0 31C0 22.4396 3.02656 15.1328 9.07969 9.07969C15.1328 3.02656 22.4396 0 31 0C39.5604 0 46.8672 3.02656 52.9203 9.07969C58.9734 15.1328 62 22.4396 62 31C62 39.5604 58.9734 46.8672 52.9203 52.9203C46.8672 58.9734 39.5604 62 31 62C22.4396 62 15.1328 58.9734 9.07969 52.9203C3.02656 46.8672 0 39.5604 0 31Z" fill="white"/>
<path fill-rule="evenodd" clip-rule="evenodd" d="M2 31C2 22.9919 4.8313 16.1565 10.4939 10.4939C16.1565 4.8313 22.9919 2 31 2C39.0081 2 45.8435 4.8313 51.5061 10.4939C57.1687 16.1565 60 22.9919 60 31C60 39.0081 57.1687 45.8435 51.5061 51.5061C45.8435 57.1687 39.0081 60 31 60C22.9919 60 16.1565 57.1687 10.4939 51.5061C4.8313 45.8435 2 39.0081 2 31Z" fill="#CACACA"/>
</svg>
