<svg width="100" height="30" viewBox="0 0 100 30" fill="none" xmlns="http://www.w3.org/2000/svg">
<path d="M13.8 22.28V20.08C13.8 17.4 13 15.36 11.08 14.28V14.2C12.88 13.2 13.8 11.36 13.8 8.6V7.72C13.8 3.24 11.36 0.68 6.92 0.68C2.48 0.68 0.04 3.24 0.04 7.72V8.6C0.04 11.36 0.92 13.2 2.76 14.2V14.28C0.84 15.36 0.04 17.4 0.04 20.08V22.28C0.04 26.76 2.48 29.32 6.92 29.32C11.36 29.32 13.8 26.76 13.8 22.28ZM4.44 22.16V19.56C4.44 17.36 5.36 16.4 6.92 16.4C8.48 16.4 9.4 17.36 9.4 19.56V22.16C9.36 24.64 8.32 25.32 6.92 25.32C5.52 25.32 4.44 24.64 4.44 22.16ZM4.44 7.88C4.44 5.36 5.52 4.68 6.92 4.68C8.32 4.68 9.4 5.36 9.4 7.88V9.44C9.4 11.68 8.32 12.4 6.92 12.4C5.48 12.4 4.44 11.68 4.44 9.44V7.88ZM20.4994 7.44C20.4994 5.44 21.3794 4.68 22.7794 4.68C24.1794 4.68 25.0594 5.44 25.0594 7.44V22.56C25.0594 24.56 24.1794 25.32 22.7794 25.32C21.3794 25.32 20.4994 24.56 20.4994 22.56V7.44ZM16.0994 22.28C16.0994 26.76 18.4594 29.32 22.7794 29.32C27.0994 29.32 29.4594 26.76 29.4594 22.28V7.72C29.4594 3.24 27.0994 0.68 22.7794 0.68C18.4594 0.68 16.0994 3.24 16.0994 7.72V22.28ZM32.3188 24.76V29H36.5588V24.76H32.3188ZM48.2206 9.44C48.2206 11.68 47.2206 12.4 45.5806 12.4H43.8606V16.4H45.3406C47.3406 16.4 48.2206 17.36 48.2206 19.96V22.16C48.2206 24.64 47.3406 25.32 45.9406 25.32C44.5406 25.32 43.6606 24.56 43.6606 22.56V19.96H39.5006V22.28C39.5006 26.76 41.7406 29.32 46.0606 29.32C50.3806 29.32 52.6206 26.76 52.6206 22.28V20.08C52.6206 17.24 51.7406 15.2 49.5406 14.24V14.16C51.6606 13.28 52.6206 11.44 52.6206 8.44V7.72C52.6206 3.24 50.3806 0.68 46.0606 0.68C41.7406 0.68 39.5006 3.24 39.5006 7.72V9.24H43.6606V7.44C43.6606 5.44 44.5406 4.68 45.9406 4.68C47.3406 4.68 48.2206 5.36 48.2206 7.88V9.44ZM68.52 7.72C68.52 3.24 66.16 0.68 61.84 0.68C57.52 0.68 55.16 3.24 55.16 7.72V12.84C55.16 16.96 56.8 19.24 60.04 19.24C62 19.24 63.28 18.4 64.04 16.8H64.12V21.88C64.12 24.56 63.24 25.32 61.68 25.32C60.28 25.32 59.4 24.56 59.4 22.56V21.56H55.24V22.28C55.24 26.76 57.48 29.32 61.8 29.32C66.36 29.32 68.52 26.76 68.52 22.04V7.72ZM61.84 15.24C60.44 15.24 59.56 14.48 59.56 12.48V7.44C59.56 5.44 60.44 4.72 61.84 4.72C63.24 4.72 64.12 5.44 64.12 7.44V12.48C64.12 14.48 63.24 15.24 61.84 15.24ZM80.2303 5.08C80.2303 3.84 80.7503 3.32 81.6703 3.32C82.5503 3.32 83.1103 3.84 83.1103 5.08V14.68C83.1103 15.92 82.5503 16.44 81.6703 16.44C80.7503 16.44 80.2303 15.92 80.2303 14.68V5.08ZM77.4303 14.48C77.4303 17.36 78.9103 18.96 81.6703 18.96C84.4303 18.96 85.9103 17.36 85.9103 14.48V5.28C85.9103 2.4 84.4303 0.799998 81.6703 0.799998C78.9103 0.799998 77.4303 2.4 77.4303 5.28V14.48ZM81.6703 29H84.2703L95.3103 0.999998H92.7103L81.6703 29ZM94.1103 15.32C94.1103 14.08 94.6303 13.56 95.5503 13.56C96.4303 13.56 96.9903 14.08 96.9903 15.32V24.92C96.9903 26.16 96.4303 26.68 95.5503 26.68C94.6303 26.68 94.1103 26.16 94.1103 24.92V15.32ZM91.3103 24.72C91.3103 27.6 92.7903 29.2 95.5503 29.2C98.3103 29.2 99.7903 27.6 99.7903 24.72V15.52C99.7903 12.64 98.3103 11.04 95.5503 11.04C92.7903 11.04 91.3103 12.64 91.3103 15.52V24.72Z" fill="#202020"/>
</svg>
