<svg width="78" height="30" viewBox="0 0 78 30" fill="none" xmlns="http://www.w3.org/2000/svg">
<path d="M0.04 7.04V10.44H7.08C7.08 12.44 5.92 13.08 3.72 13.08H0.04V16.48L9.32 29H14.04L4.72 16.48C8.12 16.48 11.12 14.32 11.44 10.44H13.8V7.04H11.44C11.28 6.04 10.96 5.16 10.44 4.4H13.8V0.999998H0.04V4.4H3.72C5.92 4.4 7.08 5.04 7.08 7.04H0.04ZM16.1794 22.28C16.1794 26.76 18.5394 29.32 22.8594 29.32C27.1794 29.32 29.5394 26.76 29.5394 22.28V17.16C29.5394 13.04 27.8994 10.76 24.6594 10.76C22.6994 10.76 21.4194 11.6 20.6594 13.2H20.5794V8.12C20.5794 5.44 21.4594 4.68 23.0194 4.68C24.4194 4.68 25.2994 5.44 25.2994 7.44V8.44H29.4594V7.72C29.4594 3.24 27.2194 0.68 22.8994 0.68C18.3394 0.68 16.1794 3.24 16.1794 7.96V22.28ZM22.8594 14.76C24.2594 14.76 25.1394 15.52 25.1394 17.52V22.56C25.1394 24.56 24.2594 25.28 22.8594 25.28C21.4594 25.28 20.5794 24.56 20.5794 22.56V17.52C20.5794 15.52 21.4594 14.76 22.8594 14.76ZM31.2788 23.92H39.6788V29H44.0788V23.92H46.1588V19.92H44.0788V0.999998H39.2788L31.2788 19.92V23.92ZM35.3188 19.92L39.5988 9.56H39.6788V19.92H35.3188ZM52.2181 7.44C52.2181 5.44 53.0981 4.68 54.4981 4.68C55.8981 4.68 56.7781 5.44 56.7781 7.44V22.56C56.7781 24.56 55.8981 25.32 54.4981 25.32C53.0981 25.32 52.2181 24.56 52.2181 22.56V7.44ZM47.8181 22.28C47.8181 26.76 50.1781 29.32 54.4981 29.32C58.8181 29.32 61.1781 26.76 61.1781 22.28V7.72C61.1781 3.24 58.8181 0.68 54.4981 0.68C50.1781 0.68 47.8181 3.24 47.8181 7.72V22.28ZM68.0775 7.44C68.0775 5.44 68.9575 4.68 70.3575 4.68C71.7575 4.68 72.6375 5.44 72.6375 7.44V22.56C72.6375 24.56 71.7575 25.32 70.3575 25.32C68.9575 25.32 68.0775 24.56 68.0775 22.56V7.44ZM63.6775 22.28C63.6775 26.76 66.0375 29.32 70.3575 29.32C74.6775 29.32 77.0375 26.76 77.0375 22.28V7.72C77.0375 3.24 74.6775 0.68 70.3575 0.68C66.0375 0.68 63.6775 3.24 63.6775 7.72V22.28Z" fill="#202020"/>
</svg>
