<svg width="38" height="36" viewBox="0 0 38 36" fill="none" xmlns="http://www.w3.org/2000/svg">
<path fill-rule="evenodd" clip-rule="evenodd" d="M34.279 35.407H3.53198C1.75879 35.0376 0.373291 33.6521 0.00390625 31.879L0.00396729 3.82007C1.35498 0.412964 3.42499 0.244995 7.31097 0.609985C7.31097 1.49194 7.31097 2.38306 7.31097 3.27502C7.27277 4.12732 7.6167 4.95227 8.24896 5.52502C9.01883 6.25781 10.1415 6.4823 11.134 6.10205C12.1649 5.80908 12.9083 4.91064 13.003 3.84302C13.103 2.76904 13.024 1.67896 13.024 0.542969H24.724C24.724 1.45801 24.724 2.31799 24.724 3.17798C24.6705 4.17627 25.1282 5.1333 25.939 5.71802C26.8071 6.38281 27.9855 6.47339 28.945 5.94897C29.9293 5.46887 30.5378 4.45337 30.497 3.35901C30.519 2.4231 30.497 1.48511 30.497 0.559082C31.797 0.559082 32.938 0.488037 34.071 0.575073C36.083 0.72998 37.119 2.09009 37.804 3.81604V31.8821C37.4338 33.6531 36.05 35.0369 34.279 35.407H34.279ZM34.8971 9.29102H2.91309V10.27C2.91309 17.0187 2.91309 23.7673 2.91309 30.516C2.91309 32.063 3.35309 32.4971 4.91309 32.4971H32.8871C34.4521 32.4971 34.8871 32.063 34.8871 30.516C34.8871 23.7673 34.8871 17.0187 34.8871 10.27L34.8971 9.29102Z" fill="#345FB4"/>
</svg>
